<?xml version="1.0" encoding="UTF-8" standalone="no"?><svg xmlns="http://www.w3.org/2000/svg" xmlns:xlink="http://www.w3.org/1999/xlink" contentScriptType="application/ecmascript" contentStyleType="text/css" height="1029px" preserveAspectRatio="none" style="width:882px;height:1029px;" version="1.1" viewBox="0 0 882 1029" width="882px" zoomAndPan="magnify"><defs><filter height="300%" id="fqqybcp53q1qi" width="300%" x="-1" y="-1"><feGaussianBlur result="blurOut" stdDeviation="2.0"/><feColorMatrix in="blurOut" result="blurOut2" type="matrix" values="0 0 0 0 0 0 0 0 0 0 0 0 0 0 0 0 0 0 .4 0"/><feOffset dx="4.0" dy="4.0" in="blurOut2" result="blurOut3"/><feBlend in="SourceGraphic" in2="blurOut3" mode="normal"/></filter></defs><g><rect fill="#ADD8E6" height="1017.2422" style="stroke:#A80036;stroke-width:1.0;" width="410" x="240" y="6"/><text fill="#000000" font-family="sans-serif" font-size="13" font-weight="bold" lengthAdjust="spacing" textLength="33" x="428.5" y="18.0669">AWS</text><rect fill="#D3D3D3" height="1017.2422" style="stroke:#A80036;stroke-width:1.0;" width="74" x="672" y="6"/><text fill="#000000" font-family="sans-serif" font-size="13" font-weight="bold" lengthAdjust="spacing" textLength="68" x="675" y="18.0669">GoDaddy</text><rect fill="#D3D3D3" height="1017.2422" style="stroke:#A80036;stroke-width:1.0;" width="96" x="768" y="6"/><text fill="#000000" font-family="sans-serif" font-size="13" font-weight="bold" lengthAdjust="spacing" textLength="58" x="787" y="18.0669">Internet</text><rect fill="#FFFFFF" filter="url(#fqqybcp53q1qi)" height="87.3984" style="stroke:#A80036;stroke-width:1.0;" width="10" x="275" y="569.3203"/><rect fill="#FFFFFF" filter="url(#fqqybcp53q1qi)" height="145.6641" style="stroke:#A80036;stroke-width:1.0;" width="10" x="275" y="728.9844"/><line style="stroke:#A80036;stroke-width:1.0;" x1="37" x2="37" y1="104.5938" y2="245.125"/><line style="stroke:#A80036;stroke-width:1.0;stroke-dasharray:1.0,4.0;" x1="37" x2="37" y1="245.125" y2="273.125"/><line style="stroke:#A80036;stroke-width:1.0;" x1="37" x2="37" y1="273.125" y2="461.9219"/><line style="stroke:#A80036;stroke-width:1.0;stroke-dasharray:1.0,4.0;" x1="37" x2="37" y1="461.9219" y2="489.9219"/><line style="stroke:#A80036;stroke-width:1.0;" x1="37" x2="37" y1="489.9219" y2="664.7188"/><line style="stroke:#A80036;stroke-width:1.0;stroke-dasharray:1.0,4.0;" x1="37" x2="37" y1="664.7188" y2="692.7188"/><line style="stroke:#A80036;stroke-width:1.0;" x1="37" x2="37" y1="692.7188" y2="882.6484"/><line style="stroke:#A80036;stroke-width:1.0;stroke-dasharray:1.0,4.0;" x1="37" x2="37" y1="882.6484" y2="910.6484"/><line style="stroke:#A80036;stroke-width:1.0;" x1="37" x2="37" y1="910.6484" y2="920.6484"/><line style="stroke:#A80036;stroke-width:1.0;" x1="116" x2="116" y1="104.5938" y2="245.125"/><line style="stroke:#A80036;stroke-width:1.0;stroke-dasharray:1.0,4.0;" x1="116" x2="116" y1="245.125" y2="273.125"/><line style="stroke:#A80036;stroke-width:1.0;" x1="116" x2="116" y1="273.125" y2="461.9219"/><line style="stroke:#A80036;stroke-width:1.0;stroke-dasharray:1.0,4.0;" x1="116" x2="116" y1="461.9219" y2="489.9219"/><line style="stroke:#A80036;stroke-width:1.0;" x1="116" x2="116" y1="489.9219" y2="664.7188"/><line style="stroke:#A80036;stroke-width:1.0;stroke-dasharray:1.0,4.0;" x1="116" x2="116" y1="664.7188" y2="692.7188"/><line style="stroke:#A80036;stroke-width:1.0;" x1="116" x2="116" y1="692.7188" y2="882.6484"/><line style="stroke:#A80036;stroke-width:1.0;stroke-dasharray:1.0,4.0;" x1="116" x2="116" y1="882.6484" y2="910.6484"/><line style="stroke:#A80036;stroke-width:1.0;" x1="116" x2="116" y1="910.6484" y2="920.6484"/><line style="stroke:#A80036;stroke-width:1.0;" x1="280" x2="280" y1="104.5938" y2="245.125"/><line style="stroke:#A80036;stroke-width:1.0;stroke-dasharray:1.0,4.0;" x1="280" x2="280" y1="245.125" y2="273.125"/><line style="stroke:#A80036;stroke-width:1.0;" x1="280" x2="280" y1="273.125" y2="461.9219"/><line style="stroke:#A80036;stroke-width:1.0;stroke-dasharray:1.0,4.0;" x1="280" x2="280" y1="461.9219" y2="489.9219"/><line style="stroke:#A80036;stroke-width:1.0;" x1="280" x2="280" y1="489.9219" y2="664.7188"/><line style="stroke:#A80036;stroke-width:1.0;stroke-dasharray:1.0,4.0;" x1="280" x2="280" y1="664.7188" y2="692.7188"/><line style="stroke:#A80036;stroke-width:1.0;" x1="280" x2="280" y1="692.7188" y2="882.6484"/><line style="stroke:#A80036;stroke-width:1.0;stroke-dasharray:1.0,4.0;" x1="280" x2="280" y1="882.6484" y2="910.6484"/><line style="stroke:#A80036;stroke-width:1.0;" x1="280" x2="280" y1="910.6484" y2="920.6484"/><line style="stroke:#A80036;stroke-width:1.0;" x1="450" x2="450" y1="104.5938" y2="245.125"/><line style="stroke:#A80036;stroke-width:1.0;stroke-dasharray:1.0,4.0;" x1="450" x2="450" y1="245.125" y2="273.125"/><line style="stroke:#A80036;stroke-width:1.0;" x1="450" x2="450" y1="273.125" y2="461.9219"/><line style="stroke:#A80036;stroke-width:1.0;stroke-dasharray:1.0,4.0;" x1="450" x2="450" y1="461.9219" y2="489.9219"/><line style="stroke:#A80036;stroke-width:1.0;" x1="450" x2="450" y1="489.9219" y2="664.7188"/><line style="stroke:#A80036;stroke-width:1.0;stroke-dasharray:1.0,4.0;" x1="450" x2="450" y1="664.7188" y2="692.7188"/><line style="stroke:#A80036;stroke-width:1.0;" x1="450" x2="450" y1="692.7188" y2="882.6484"/><line style="stroke:#A80036;stroke-width:1.0;stroke-dasharray:1.0,4.0;" x1="450" x2="450" y1="882.6484" y2="910.6484"/><line style="stroke:#A80036;stroke-width:1.0;" x1="450" x2="450" y1="910.6484" y2="920.6484"/><line style="stroke:#A80036;stroke-width:1.0;" x1="584" x2="584" y1="104.5938" y2="245.125"/><line style="stroke:#A80036;stroke-width:1.0;stroke-dasharray:1.0,4.0;" x1="584" x2="584" y1="245.125" y2="273.125"/><line style="stroke:#A80036;stroke-width:1.0;" x1="584" x2="584" y1="273.125" y2="461.9219"/><line style="stroke:#A80036;stroke-width:1.0;stroke-dasharray:1.0,4.0;" x1="584" x2="584" y1="461.9219" y2="489.9219"/><line style="stroke:#A80036;stroke-width:1.0;" x1="584" x2="584" y1="489.9219" y2="664.7188"/><line style="stroke:#A80036;stroke-width:1.0;stroke-dasharray:1.0,4.0;" x1="584" x2="584" y1="664.7188" y2="692.7188"/><line style="stroke:#A80036;stroke-width:1.0;" x1="584" x2="584" y1="692.7188" y2="882.6484"/><line style="stroke:#A80036;stroke-width:1.0;stroke-dasharray:1.0,4.0;" x1="584" x2="584" y1="882.6484" y2="910.6484"/><line style="stroke:#A80036;stroke-width:1.0;" x1="584" x2="584" y1="910.6484" y2="920.6484"/><line style="stroke:#A80036;stroke-width:1.0;" x1="708.5" x2="708.5" y1="104.5938" y2="245.125"/><line style="stroke:#A80036;stroke-width:1.0;stroke-dasharray:1.0,4.0;" x1="708.5" x2="708.5" y1="245.125" y2="273.125"/><line style="stroke:#A80036;stroke-width:1.0;" x1="708.5" x2="708.5" y1="273.125" y2="461.9219"/><line style="stroke:#A80036;stroke-width:1.0;stroke-dasharray:1.0,4.0;" x1="708.5" x2="708.5" y1="461.9219" y2="489.9219"/><line style="stroke:#A80036;stroke-width:1.0;" x1="708.5" x2="708.5" y1="489.9219" y2="664.7188"/><line style="stroke:#A80036;stroke-width:1.0;stroke-dasharray:1.0,4.0;" x1="708.5" x2="708.5" y1="664.7188" y2="692.7188"/><line style="stroke:#A80036;stroke-width:1.0;" x1="708.5" x2="708.5" y1="692.7188" y2="882.6484"/><line style="stroke:#A80036;stroke-width:1.0;stroke-dasharray:1.0,4.0;" x1="708.5" x2="708.5" y1="882.6484" y2="910.6484"/><line style="stroke:#A80036;stroke-width:1.0;" x1="708.5" x2="708.5" y1="910.6484" y2="920.6484"/><line style="stroke:#A80036;stroke-width:1.0;" x1="816" x2="816" y1="104.5938" y2="245.125"/><line style="stroke:#A80036;stroke-width:1.0;stroke-dasharray:1.0,4.0;" x1="816" x2="816" y1="245.125" y2="273.125"/><line style="stroke:#A80036;stroke-width:1.0;" x1="816" x2="816" y1="273.125" y2="461.9219"/><line style="stroke:#A80036;stroke-width:1.0;stroke-dasharray:1.0,4.0;" x1="816" x2="816" y1="461.9219" y2="489.9219"/><line style="stroke:#A80036;stroke-width:1.0;" x1="816" x2="816" y1="489.9219" y2="664.7188"/><line style="stroke:#A80036;stroke-width:1.0;stroke-dasharray:1.0,4.0;" x1="816" x2="816" y1="664.7188" y2="692.7188"/><line style="stroke:#A80036;stroke-width:1.0;" x1="816" x2="816" y1="692.7188" y2="882.6484"/><line style="stroke:#A80036;stroke-width:1.0;stroke-dasharray:1.0,4.0;" x1="816" x2="816" y1="882.6484" y2="910.6484"/><line style="stroke:#A80036;stroke-width:1.0;" x1="816" x2="816" y1="910.6484" y2="920.6484"/><text fill="#000000" font-family="sans-serif" font-size="14" lengthAdjust="spacing" textLength="58" x="5" y="84.9951">Gophish</text><text fill="#000000" font-family="sans-serif" font-size="14" lengthAdjust="spacing" textLength="43" x="12.5" y="101.292">Admin</text><ellipse cx="37" cy="15" fill="#FEFECE" filter="url(#fqqybcp53q1qi)" rx="8" ry="8" style="stroke:#A80036;stroke-width:2.0;"/><path d="M37,23 L37,50 M24,31 L50,31 M37,50 L24,65 M37,50 L50,65 " fill="none" filter="url(#fqqybcp53q1qi)" style="stroke:#A80036;stroke-width:2.0;"/><text fill="#000000" font-family="sans-serif" font-size="14" lengthAdjust="spacing" textLength="58" x="5" y="932.6436">Gophish</text><text fill="#000000" font-family="sans-serif" font-size="14" lengthAdjust="spacing" textLength="43" x="12.5" y="948.9404">Admin</text><ellipse cx="37" cy="962.2422" fill="#FEFECE" filter="url(#fqqybcp53q1qi)" rx="8" ry="8" style="stroke:#A80036;stroke-width:2.0;"/><path d="M37,970.2422 L37,997.2422 M24,978.2422 L50,978.2422 M37,997.2422 L24,1012.2422 M37,997.2422 L50,1012.2422 " fill="none" filter="url(#fqqybcp53q1qi)" style="stroke:#A80036;stroke-width:2.0;"/><text fill="#000000" font-family="sans-serif" font-size="14" lengthAdjust="spacing" textLength="64" x="81" y="84.9951">GoDaddy</text><text fill="#000000" font-family="sans-serif" font-size="14" lengthAdjust="spacing" textLength="68" x="79" y="101.292">Employee</text><ellipse cx="116" cy="15" fill="#FEFECE" filter="url(#fqqybcp53q1qi)" rx="8" ry="8" style="stroke:#A80036;stroke-width:2.0;"/><path d="M116,23 L116,50 M103,31 L129,31 M116,50 L103,65 M116,50 L129,65 " fill="none" filter="url(#fqqybcp53q1qi)" style="stroke:#A80036;stroke-width:2.0;"/><text fill="#000000" font-family="sans-serif" font-size="14" lengthAdjust="spacing" textLength="64" x="81" y="932.6436">GoDaddy</text><text fill="#000000" font-family="sans-serif" font-size="14" lengthAdjust="spacing" textLength="68" x="79" y="948.9404">Employee</text><ellipse cx="116" cy="962.2422" fill="#FEFECE" filter="url(#fqqybcp53q1qi)" rx="8" ry="8" style="stroke:#A80036;stroke-width:2.0;"/><path d="M116,970.2422 L116,997.2422 M103,978.2422 L129,978.2422 M116,997.2422 L103,1012.2422 M116,997.2422 L129,1012.2422 " fill="none" filter="url(#fqqybcp53q1qi)" style="stroke:#A80036;stroke-width:2.0;"/><rect fill="#FEFECE" filter="url(#fqqybcp53q1qi)" height="46.5938" style="stroke:#A80036;stroke-width:1.5;" width="68" x="244" y="53"/><text fill="#000000" font-family="sans-serif" font-size="14" lengthAdjust="spacing" textLength="44" x="256" y="72.9951">Status</text><text fill="#000000" font-family="sans-serif" font-size="14" lengthAdjust="spacing" textLength="54" x="251" y="89.292">Lambda</text><rect fill="#FEFECE" filter="url(#fqqybcp53q1qi)" height="46.5938" style="stroke:#A80036;stroke-width:1.5;" width="68" x="244" y="919.6484"/><text fill="#000000" font-family="sans-serif" font-size="14" lengthAdjust="spacing" textLength="44" x="256" y="939.6436">Status</text><text fill="#000000" font-family="sans-serif" font-size="14" lengthAdjust="spacing" textLength="54" x="251" y="955.9404">Lambda</text><rect fill="#FEFECE" filter="url(#fqqybcp53q1qi)" height="46.5938" style="stroke:#A80036;stroke-width:1.5;" width="120" x="388" y="53"/><text fill="#000000" font-family="sans-serif" font-size="14" lengthAdjust="spacing" textLength="106" x="395" y="72.9951">Gophish Server</text><text fill="#000000" font-family="sans-serif" font-size="14" lengthAdjust="spacing" textLength="53" x="421.5" y="89.292">(Admin)</text><rect fill="#FEFECE" filter="url(#fqqybcp53q1qi)" height="46.5938" style="stroke:#A80036;stroke-width:1.5;" width="120" x="388" y="919.6484"/><text fill="#000000" font-family="sans-serif" font-size="14" lengthAdjust="spacing" textLength="106" x="395" y="939.6436">Gophish Server</text><text fill="#000000" font-family="sans-serif" font-size="14" lengthAdjust="spacing" textLength="53" x="421.5" y="955.9404">(Admin)</text><rect fill="#FEFECE" filter="url(#fqqybcp53q1qi)" height="46.5938" style="stroke:#A80036;stroke-width:1.5;" width="120" x="522" y="53"/><text fill="#000000" font-family="sans-serif" font-size="14" lengthAdjust="spacing" textLength="106" x="529" y="72.9951">Gophish Server</text><text fill="#000000" font-family="sans-serif" font-size="14" lengthAdjust="spacing" textLength="48" x="558" y="89.292">(Phish)</text><rect fill="#FEFECE" filter="url(#fqqybcp53q1qi)" height="46.5938" style="stroke:#A80036;stroke-width:1.5;" width="120" x="522" y="919.6484"/><text fill="#000000" font-family="sans-serif" font-size="14" lengthAdjust="spacing" textLength="106" x="529" y="939.6436">Gophish Server</text><text fill="#000000" font-family="sans-serif" font-size="14" lengthAdjust="spacing" textLength="48" x="558" y="955.9404">(Phish)</text><rect fill="#FEFECE" filter="url(#fqqybcp53q1qi)" height="30.2969" style="stroke:#A80036;stroke-width:1.5;" width="43" x="685.5" y="69.2969"/><text fill="#000000" font-family="sans-serif" font-size="14" lengthAdjust="spacing" textLength="29" x="692.5" y="89.292">SSO</text><rect fill="#FEFECE" filter="url(#fqqybcp53q1qi)" height="30.2969" style="stroke:#A80036;stroke-width:1.5;" width="43" x="685.5" y="919.6484"/><text fill="#000000" font-family="sans-serif" font-size="14" lengthAdjust="spacing" textLength="29" x="692.5" y="939.6436">SSO</text><rect fill="#FEFECE" filter="url(#fqqybcp53q1qi)" height="30.2969" style="stroke:#A80036;stroke-width:1.5;" width="84" x="772" y="69.2969"/><text fill="#000000" font-family="sans-serif" font-size="14" lengthAdjust="spacing" textLength="70" x="779" y="89.292">Office 365</text><rect fill="#FEFECE" filter="url(#fqqybcp53q1qi)" height="30.2969" style="stroke:#A80036;stroke-width:1.5;" width="84" x="772" y="919.6484"/><text fill="#000000" font-family="sans-serif" font-size="14" lengthAdjust="spacing" textLength="70" x="779" y="939.6436">Office 365</text><rect fill="#FFFFFF" filter="url(#fqqybcp53q1qi)" height="87.3984" style="stroke:#A80036;stroke-width:1.0;" width="10" x="275" y="569.3203"/><rect fill="#FFFFFF" filter="url(#fqqybcp53q1qi)" height="145.6641" style="stroke:#A80036;stroke-width:1.0;" width="10" x="275" y="728.9844"/><rect fill="#EEEEEE" filter="url(#fqqybcp53q1qi)" height="3" style="stroke:#EEEEEE;stroke-width:1.0;" width="875" x="0" y="135.1602"/><line style="stroke:#000000;stroke-width:1.0;" x1="0" x2="875" y1="135.1602" y2="135.1602"/><line style="stroke:#000000;stroke-width:1.0;" x1="0" x2="875" y1="138.1602" y2="138.1602"/><rect fill="#EEEEEE" filter="url(#fqqybcp53q1qi)" height="23.1328" style="stroke:#000000;stroke-width:2.0;" width="322" x="276.5" y="124.5938"/><text fill="#000000" font-family="sans-serif" font-size="13" font-weight="bold" lengthAdjust="spacing" textLength="303" x="282.5" y="140.6606">Gophish administrator creates campaign</text><polygon fill="#A80036" points="438,174.8594,448,178.8594,438,182.8594,442,178.8594" style="stroke:#A80036;stroke-width:1.0;"/><line style="stroke:#A80036;stroke-width:1.0;" x1="37" x2="444" y1="178.8594" y2="178.8594"/><text fill="#000000" font-family="sans-serif" font-size="13" lengthAdjust="spacing" textLength="110" x="44" y="173.7935">Create campaign</text><polygon fill="#A80036" points="438,203.9922,448,207.9922,438,211.9922,442,207.9922" style="stroke:#A80036;stroke-width:1.0;"/><line style="stroke:#A80036;stroke-width:1.0;" x1="37" x2="444" y1="207.9922" y2="207.9922"/><text fill="#000000" font-family="sans-serif" font-size="13" lengthAdjust="spacing" textLength="113" x="44" y="202.9263">Launch campaign</text><polygon fill="#A80036" points="804,233.125,814,237.125,804,241.125,808,237.125" style="stroke:#A80036;stroke-width:1.0;"/><line style="stroke:#A80036;stroke-width:1.0;" x1="450" x2="810" y1="237.125" y2="237.125"/><text fill="#000000" font-family="sans-serif" font-size="13" lengthAdjust="spacing" textLength="121" x="457" y="232.0591">Deliver phish email</text><rect fill="#EEEEEE" filter="url(#fqqybcp53q1qi)" height="3" style="stroke:#EEEEEE;stroke-width:1.0;" width="875" x="0" y="293.6914"/><line style="stroke:#000000;stroke-width:1.0;" x1="0" x2="875" y1="293.6914" y2="293.6914"/><line style="stroke:#000000;stroke-width:1.0;" x1="0" x2="875" y1="296.6914" y2="296.6914"/><rect fill="#EEEEEE" filter="url(#fqqybcp53q1qi)" height="23.1328" style="stroke:#000000;stroke-width:2.0;" width="231" x="322" y="283.125"/><text fill="#000000" font-family="sans-serif" font-size="13" font-weight="bold" lengthAdjust="spacing" textLength="212" x="328" y="299.1919">Employee clicks link in email</text><polygon fill="#A80036" points="804,333.3906,814,337.3906,804,341.3906,808,337.3906" style="stroke:#A80036;stroke-width:1.0;"/><line style="stroke:#A80036;stroke-width:1.0;" x1="116" x2="810" y1="337.3906" y2="337.3906"/><text fill="#000000" font-family="sans-serif" font-size="13" lengthAdjust="spacing" textLength="91" x="123" y="332.3247">Get new email</text><polygon fill="#A80036" points="127,362.5234,117,366.5234,127,370.5234,123,366.5234" style="stroke:#A80036;stroke-width:1.0;"/><line style="stroke:#A80036;stroke-width:1.0;" x1="121" x2="815" y1="366.5234" y2="366.5234"/><text fill="#000000" font-family="sans-serif" font-size="13" lengthAdjust="spacing" textLength="73" x="133" y="361.4575">Phish email</text><polygon fill="#A80036" points="572,391.6563,582,395.6563,572,399.6563,576,395.6563" style="stroke:#A80036;stroke-width:1.0;"/><line style="stroke:#A80036;stroke-width:1.0;" x1="116" x2="578" y1="395.6563" y2="395.6563"/><text fill="#000000" font-family="sans-serif" font-size="13" lengthAdjust="spacing" textLength="111" x="123" y="390.5903">Click phishing link</text><polygon fill="#A80036" points="127,420.7891,117,424.7891,127,428.7891,123,424.7891" style="stroke:#A80036;stroke-width:1.0;"/><line style="stroke:#A80036;stroke-width:1.0;" x1="121" x2="583" y1="424.7891" y2="424.7891"/><text fill="#000000" font-family="sans-serif" font-size="13" lengthAdjust="spacing" textLength="120" x="133" y="419.7231">Phish landing page</text><polygon fill="#A80036" points="572,449.9219,582,453.9219,572,457.9219,576,453.9219" style="stroke:#A80036;stroke-width:1.0;"/><line style="stroke:#A80036;stroke-width:1.0;" x1="116" x2="578" y1="453.9219" y2="453.9219"/><text fill="#000000" font-family="sans-serif" font-size="13" lengthAdjust="spacing" textLength="117" x="123" y="448.856">Supply credentials</text><rect fill="#EEEEEE" filter="url(#fqqybcp53q1qi)" height="3" style="stroke:#EEEEEE;stroke-width:1.0;" width="875" x="0" y="510.4883"/><line style="stroke:#000000;stroke-width:1.0;" x1="0" x2="875" y1="510.4883" y2="510.4883"/><line style="stroke:#000000;stroke-width:1.0;" x1="0" x2="875" y1="513.4883" y2="513.4883"/><rect fill="#EEEEEE" filter="url(#fqqybcp53q1qi)" height="23.1328" style="stroke:#000000;stroke-width:2.0;" width="327" x="274" y="499.9219"/><text fill="#000000" font-family="sans-serif" font-size="13" font-weight="bold" lengthAdjust="spacing" textLength="308" x="280" y="515.9888">Employee checks security exercise status</text><polygon fill="#A80036" points="263,565.3203,273,569.3203,263,573.3203,267,569.3203" style="stroke:#A80036;stroke-width:1.0;"/><line style="stroke:#A80036;stroke-width:1.0;" x1="116" x2="269" y1="569.3203" y2="569.3203"/><text fill="#000000" font-family="sans-serif" font-size="13" lengthAdjust="spacing" textLength="96" x="123" y="549.1216">Request status</text><text fill="#000000" font-family="sans-serif" font-size="13" lengthAdjust="spacing" textLength="115" x="123" y="564.2544">(unauthenticated)</text><polygon fill="#A80036" points="697,594.4531,707,598.4531,697,602.4531,701,598.4531" style="stroke:#A80036;stroke-width:1.0;"/><line style="stroke:#A80036;stroke-width:1.0;" x1="285" x2="703" y1="598.4531" y2="598.4531"/><text fill="#000000" font-family="sans-serif" font-size="13" lengthAdjust="spacing" textLength="77" x="292" y="593.3872">Validate JWT</text><polygon fill="#A80036" points="296,623.5859,286,627.5859,296,631.5859,292,627.5859" style="stroke:#A80036;stroke-width:1.0;"/><line style="stroke:#A80036;stroke-width:1.0;" x1="290" x2="708" y1="627.5859" y2="627.5859"/><text fill="#000000" font-family="sans-serif" font-size="13" lengthAdjust="spacing" textLength="107" x="302" y="622.52">Unauthenticated</text><polygon fill="#A80036" points="127,652.7188,117,656.7188,127,660.7188,123,656.7188" style="stroke:#A80036;stroke-width:1.0;"/><line style="stroke:#A80036;stroke-width:1.0;" x1="121" x2="279" y1="656.7188" y2="656.7188"/><text fill="#000000" font-family="sans-serif" font-size="13" lengthAdjust="spacing" textLength="135" x="133" y="651.6528">Redirect to SSO login</text><polygon fill="#A80036" points="263,724.9844,273,728.9844,263,732.9844,267,728.9844" style="stroke:#A80036;stroke-width:1.0;"/><line style="stroke:#A80036;stroke-width:1.0;" x1="116" x2="269" y1="728.9844" y2="728.9844"/><text fill="#000000" font-family="sans-serif" font-size="13" lengthAdjust="spacing" textLength="96" x="123" y="708.7856">Request status</text><text fill="#000000" font-family="sans-serif" font-size="13" lengthAdjust="spacing" textLength="99" x="123" y="723.9185">(authenticated)</text><polygon fill="#A80036" points="697,754.1172,707,758.1172,697,762.1172,701,758.1172" style="stroke:#A80036;stroke-width:1.0;"/><line style="stroke:#A80036;stroke-width:1.0;" x1="285" x2="703" y1="758.1172" y2="758.1172"/><text fill="#000000" font-family="sans-serif" font-size="13" lengthAdjust="spacing" textLength="77" x="292" y="753.0513">Validate JWT</text><polygon fill="#A80036" points="296,783.25,286,787.25,296,791.25,292,787.25" style="stroke:#A80036;stroke-width:1.0;"/><line style="stroke:#A80036;stroke-width:1.0;" x1="290" x2="708" y1="787.25" y2="787.25"/><text fill="#000000" font-family="sans-serif" font-size="13" lengthAdjust="spacing" textLength="90" x="302" y="782.1841">Authenticated</text><polygon fill="#A80036" points="438,812.3828,448,816.3828,438,820.3828,442,816.3828" style="stroke:#A80036;stroke-width:1.0;"/><line style="stroke:#A80036;stroke-width:1.0;" x1="285" x2="444" y1="816.3828" y2="816.3828"/><text fill="#000000" font-family="sans-serif" font-size="13" lengthAdjust="spacing" textLength="141" x="292" y="811.3169">Query campaign stats</text><polygon fill="#A80036" points="296,841.5156,286,845.5156,296,849.5156,292,845.5156" style="stroke:#A80036;stroke-width:1.0;"/><line style="stroke:#A80036;stroke-width:1.0;" x1="290" x2="449" y1="845.5156" y2="845.5156"/><text fill="#000000" font-family="sans-serif" font-size="13" lengthAdjust="spacing" textLength="101" x="302" y="840.4497">Campaign stats</text><polygon fill="#A80036" points="127,870.6484,117,874.6484,127,878.6484,123,874.6484" style="stroke:#A80036;stroke-width:1.0;"/><line style="stroke:#A80036;stroke-width:1.0;" x1="121" x2="279" y1="874.6484" y2="874.6484"/><text fill="#000000" font-family="sans-serif" font-size="13" lengthAdjust="spacing" textLength="124" x="133" y="869.5825">HTML report (stats)</text><!--MD5=[ffbe6d3a4aa1b06d8b16957359e30c26]
@startuml
skinparam BoxPadding 10

actor "Gophish\nAdmin" as Admin
actor "GoDaddy\nEmployee" as Target

box "AWS" #LightBlue
participant "Status\nLambda" as Status_Lambda
participant "Gophish Server\n(Admin)" as Admin_Server
participant "Gophish Server\n(Phish)" as Phish_Server
end box

box "GoDaddy" #LightGrey
participant SSO
end box

box "Internet" #LightGrey
participant "Office 365" as Office_365
end box

== Gophish administrator creates campaign ==

Admin -> Admin_Server : Create campaign
Admin -> Admin_Server : Launch campaign
Admin_Server -> Office_365 : Deliver phish email
...

== Employee clicks link in email ==

Target -> Office_365 : Get new email
Office_365 -> Target : Phish email
Target -> Phish_Server : Click phishing link
Phish_Server -> Target : Phish landing page
Target -> Phish_Server : Supply credentials
...

== Employee checks security exercise status ==

Target -> Status_Lambda : Request status\n(unauthenticated)
activate Status_Lambda
Status_Lambda -> SSO : Validate JWT
SSO -> Status_Lambda : Unauthenticated
Status_Lambda -> Target : Redirect to SSO login
deactivate Status_Lambda
...

Target -> Status_Lambda : Request status\n(authenticated)
activate Status_Lambda
Status_Lambda -> SSO : Validate JWT
SSO -> Status_Lambda : Authenticated
Status_Lambda -> Admin_Server : Query campaign stats
Admin_Server -> Status_Lambda : Campaign stats
Status_Lambda -> Target : HTML report (stats)
deactivate Status_Lambda
...

@enduml

PlantUML version 1.2021.5(Sun Apr 25 04:20:28 MST 2021)
(GPL source distribution)
Java Runtime: OpenJDK Runtime Environment
JVM: OpenJDK 64-Bit Server VM
Default Encoding: UTF-8
Language: en
Country: US
--></g></svg>
